<mxfile host="app.diagrams.net" modified="2021-11-09T02:53:15.749Z" agent="5.0 (Windows NT 10.0; Win64; x64) AppleWebKit/537.36 (KHTML, like Gecko) Chrome/95.0.4638.69 Safari/537.36" etag="5CqLD4gXxdZoWbo84j55" version="15.7.0" type="github">
  <diagram id="Ua7ZeykOQTL60p2kjY20" name="Page-1">
    <mxGraphModel dx="1038" dy="547" grid="1" gridSize="10" guides="1" tooltips="1" connect="1" arrows="1" fold="1" page="1" pageScale="1" pageWidth="827" pageHeight="1169" math="0" shadow="0">
      <root>
        <mxCell id="0" />
        <mxCell id="1" parent="0" />
        <mxCell id="TWoe7xvOJfkTYzL6-bIi-1" value="" style="rounded=0;whiteSpace=wrap;html=1;" vertex="1" parent="1">
          <mxGeometry x="180" y="100" width="230" height="380" as="geometry" />
        </mxCell>
        <mxCell id="TWoe7xvOJfkTYzL6-bIi-3" value="PATH" style="rounded=0;whiteSpace=wrap;html=1;" vertex="1" parent="1">
          <mxGeometry x="180" y="100" width="230" height="30" as="geometry" />
        </mxCell>
        <mxCell id="TWoe7xvOJfkTYzL6-bIi-4" value="LEGTH" style="rounded=0;whiteSpace=wrap;html=1;" vertex="1" parent="1">
          <mxGeometry x="180" y="130" width="230" height="30" as="geometry" />
        </mxCell>
        <mxCell id="TWoe7xvOJfkTYzL6-bIi-5" value="SPEC_ID" style="rounded=0;whiteSpace=wrap;html=1;" vertex="1" parent="1">
          <mxGeometry x="180" y="160" width="230" height="30" as="geometry" />
        </mxCell>
      </root>
    </mxGraphModel>
  </diagram>
</mxfile>
